<svg width="22" height="20" viewBox="0 0 22 20" fill="none" xmlns="http://www.w3.org/2000/svg">
<path d="M3.31543 20H13.1772C14.1359 20 14.8564 19.7557 15.3389 19.2671C15.8213 18.7847 16.0625 18.0579 16.0625 17.0869V12.7915H14.541V17.0498C14.541 17.5075 14.4173 17.86 14.1699 18.1074C13.9287 18.3548 13.57 18.4785 13.0938 18.4785H3.39893C2.92269 18.4785 2.56087 18.3548 2.31348 18.1074C2.07227 17.86 1.95166 17.5075 1.95166 17.0498V3.05029C1.95166 2.59261 2.07227 2.24007 2.31348 1.99268C2.56087 1.7391 2.92269 1.6123 3.39893 1.6123H13.0938C13.57 1.6123 13.9287 1.7391 14.1699 1.99268C14.4173 2.24007 14.541 2.59261 14.541 3.05029V7.29932H16.0625V3.01318C16.0625 2.04834 15.8213 1.32161 15.3389 0.833008C14.8564 0.338216 14.1359 0.0908203 13.1772 0.0908203H3.31543C2.35677 0.0908203 1.63623 0.338216 1.15381 0.833008C0.671387 1.32161 0.430176 2.04834 0.430176 3.01318V17.0869C0.430176 18.0579 0.671387 18.7847 1.15381 19.2671C1.63623 19.7557 2.35677 20 3.31543 20ZM9.04883 10.7876H18.5581L19.9497 10.7319L19.291 11.3628L17.8066 12.7544C17.6582 12.8843 17.584 13.0513 17.584 13.2554C17.584 13.4533 17.6427 13.6172 17.7603 13.7471C17.884 13.877 18.0448 13.9419 18.2427 13.9419C18.422 13.9419 18.5859 13.8708 18.7344 13.7285L21.7588 10.5928C21.8516 10.5 21.9134 10.4103 21.9443 10.3237C21.9814 10.231 22 10.1382 22 10.0454C22 9.95264 21.9814 9.86296 21.9443 9.77637C21.9134 9.68359 21.8516 9.59082 21.7588 9.49805L18.7344 6.3623C18.5859 6.21387 18.422 6.13965 18.2427 6.13965C18.0448 6.13965 17.884 6.20459 17.7603 6.33447C17.6427 6.45817 17.584 6.61898 17.584 6.81689C17.584 7.02718 17.6582 7.19727 17.8066 7.32715L19.291 8.72803L19.9497 9.35889L18.5581 9.29395H9.04883C8.8571 9.29395 8.68701 9.36816 8.53857 9.5166C8.39632 9.66504 8.3252 9.84131 8.3252 10.0454C8.3252 10.2495 8.39632 10.4258 8.53857 10.5742C8.68701 10.7165 8.8571 10.7876 9.04883 10.7876Z" fill="#2E665A"/>
</svg>
