<svg width="33" height="22" viewBox="0 0 33 22" fill="none" xmlns="http://www.w3.org/2000/svg">
<path opacity="0.7" d="M22.7183 11.2061C25.5034 11.2061 27.7495 8.78027 27.7495 5.77051C27.7495 2.82812 25.4922 0.447266 22.7183 0.447266C19.9556 0.447266 17.687 2.83936 17.6982 5.78174C17.7095 8.78027 19.9331 11.2061 22.7183 11.2061ZM9.57861 11.3633C12.0044 11.3633 13.9697 9.22949 13.9697 6.5791C13.9697 4.00732 11.9932 1.896 9.57861 1.896C7.16406 1.896 5.17627 4.02979 5.17627 6.59033C5.1875 9.24072 7.1416 11.3633 9.57861 11.3633ZM22.7183 8.8252C21.3145 8.8252 20.1353 7.51123 20.1353 5.77051C20.124 4.11963 21.3257 2.81689 22.7183 2.81689C24.1333 2.81689 25.3013 4.1084 25.3013 5.77051C25.3013 7.48877 24.1333 8.8252 22.7183 8.8252ZM9.57861 9.02734C8.4668 9.02734 7.52344 7.96045 7.52344 6.59033C7.51221 5.29883 8.4668 4.23193 9.57861 4.23193C10.6904 4.23193 11.6338 5.27637 11.6338 6.5791C11.6338 7.96045 10.7017 9.02734 9.57861 9.02734ZM3.50293 21.7402H12.0718C11.3418 21.291 10.9263 20.2578 11.0161 19.4043H3.66016C3.46924 19.4043 3.40186 19.3032 3.40186 19.1572C3.40186 16.9224 6.17578 14.6875 9.56738 14.6875C10.5781 14.6875 11.8135 14.957 12.6108 15.3501C13.0151 14.6538 13.5767 14.0586 14.3628 13.5757C12.9814 12.812 11.1509 12.3628 9.56738 12.3628C4.76074 12.3628 0.86377 15.7319 0.86377 19.4604C0.86377 20.9429 1.73975 21.7402 3.50293 21.7402ZM15.8115 21.729H29.625C31.6802 21.729 32.7021 21.0327 32.7021 19.5728C32.7021 16.271 28.6255 12.374 22.7183 12.374C16.7998 12.374 12.7344 16.271 12.7344 19.5728C12.7344 21.0327 13.7563 21.729 15.8115 21.729ZM15.7217 19.3594C15.5083 19.3594 15.4409 19.2695 15.4409 19.1011C15.4409 17.5962 18.0913 14.7437 22.7183 14.7437C27.3452 14.7437 29.9956 17.5962 29.9956 19.1011C29.9956 19.2695 29.9282 19.3594 29.7036 19.3594H15.7217Z" fill="#233833"/>
</svg>
