<svg width="24" height="24" viewBox="0 0 24 24" fill="none" xmlns="http://www.w3.org/2000/svg">
<path opacity="0.7" d="M11.2124 23.0195H13.3042C14.2578 23.0195 15.0269 22.4146 15.2319 21.502L15.6113 19.8716L15.7856 19.8101L17.2109 20.6919C18.0107 21.1841 18.9746 21.0508 19.6411 20.374L21.0869 18.9385C21.7637 18.2412 21.8765 17.2876 21.3843 16.5083L20.5127 15.0933L20.564 14.9292L22.1841 14.5498C23.0864 14.3242 23.6812 13.5654 23.6812 12.6221V10.6123C23.6812 9.66895 23.0967 8.8999 22.1841 8.67432L20.5845 8.28467L20.5127 8.12061L21.3945 6.70557C21.897 5.92627 21.7739 4.97266 21.0869 4.26514L19.6411 2.82959C18.9849 2.15283 18.021 2.01953 17.2212 2.51172L15.7959 3.3833L15.6113 3.32178L15.2319 1.69141C15.0269 0.778809 14.2578 0.173828 13.3042 0.173828H11.2124C10.2588 0.173828 9.5 0.789062 9.28467 1.69141L8.90527 3.32178L8.7207 3.3833L7.29541 2.51172C6.49561 2.02979 5.53174 2.15283 4.87549 2.82959L3.42969 4.26514C2.75293 4.97266 2.62988 5.92627 3.12207 6.70557L4.00391 8.12061L3.94238 8.28467L2.33252 8.67432C1.41992 8.8999 0.835449 9.66895 0.835449 10.6123V12.6221C0.835449 13.5654 1.43018 14.3242 2.33252 14.5498L3.95264 14.9292L4.01416 15.0933L3.13232 16.5083C2.62988 17.2876 2.75293 18.2412 3.42969 18.9385L4.87549 20.374C5.54199 21.0508 6.50586 21.1841 7.30566 20.6919L8.73096 19.8101L8.90527 19.8716L9.28467 21.502C9.5 22.4146 10.2588 23.0195 11.2124 23.0195ZM11.6226 20.7021C11.4585 20.7021 11.3765 20.6201 11.356 20.4766L10.7612 17.9746C10.064 17.8413 9.37695 17.5542 8.77197 17.1543L6.58789 18.5078C6.46484 18.5898 6.3418 18.5796 6.229 18.4668L5.34717 17.585C5.22412 17.4722 5.23438 17.3491 5.30615 17.2261L6.65967 15.042C6.30078 14.4473 6.01367 13.7808 5.87012 13.0835L3.36816 12.499C3.22461 12.4683 3.14258 12.3965 3.14258 12.2222V11.002C3.14258 10.8174 3.22461 10.7456 3.36816 10.7148L5.87012 10.1304C6.02393 9.42285 6.31104 8.72559 6.64941 8.16162L5.30615 5.97754C5.22412 5.85449 5.21387 5.73145 5.32666 5.61865L6.21875 4.74707C6.3418 4.63428 6.44434 4.62402 6.58789 4.70605L8.76172 6.03906C9.26416 5.70068 10.0332 5.38281 10.7612 5.21875L11.356 2.7168C11.3765 2.57324 11.4585 2.49121 11.6226 2.49121H12.894C13.0684 2.49121 13.1401 2.57324 13.1709 2.7168L13.7656 5.229C14.4937 5.38281 15.1602 5.68018 15.7446 6.03906L17.9185 4.71631C18.062 4.63428 18.1646 4.64453 18.2876 4.75732L19.1797 5.62891C19.2925 5.75195 19.2822 5.86475 19.2002 5.99805L17.8672 8.16162C18.2056 8.72559 18.5029 9.42285 18.6465 10.1201L21.1484 10.7148C21.3022 10.7456 21.374 10.8174 21.374 11.002V12.2222C21.374 12.3965 21.292 12.4683 21.1484 12.499L18.6465 13.0938C18.5029 13.7705 18.2158 14.4678 17.8569 15.042L19.2002 17.2158C19.272 17.3389 19.2822 17.4619 19.1592 17.5747L18.2773 18.4565C18.1543 18.5693 18.0415 18.5796 17.9185 18.4976L15.7446 17.1543C15.1294 17.5542 14.5244 17.8208 13.7656 17.9746L13.1709 20.4766C13.1401 20.6201 13.0684 20.7021 12.894 20.7021H11.6226ZM12.2583 15.4624C14.3809 15.4624 16.1138 13.7295 16.1138 11.5967C16.1138 9.48438 14.3809 7.75146 12.2583 7.75146C10.1357 7.75146 8.39258 9.48438 8.39258 11.5967C8.39258 13.7295 10.1357 15.4624 12.2583 15.4624ZM12.2583 13.4014C11.2739 13.4014 10.4639 12.5913 10.4639 11.5967C10.4639 10.6226 11.2739 9.8125 12.2583 9.8125C13.2222 9.8125 14.0322 10.6226 14.0322 11.5967C14.0322 12.5811 13.2222 13.4014 12.2583 13.4014Z" fill="#233833"/>
</svg>
