<svg width="25" height="25" viewBox="0 0 25 25" fill="none" xmlns="http://www.w3.org/2000/svg">
<path d="M23.3563 12.5C24.2641 12.5 25.0111 11.7609 24.8921 10.861C24.642 8.96989 23.9612 7.1535 22.8934 5.55538C21.5199 3.49976 19.5676 1.89761 17.2835 0.951511C14.9995 0.00541604 12.4861 -0.242126 10.0614 0.24019C7.63661 0.722505 5.40933 1.91301 3.66117 3.66117C1.91301 5.40933 0.722505 7.63661 0.24019 10.0614C-0.242126 12.4861 0.00541604 14.9995 0.951512 17.2835C1.89761 19.5676 3.49976 21.5199 5.55538 22.8934C7.1535 23.9612 8.96989 24.642 10.861 24.8921C11.7609 25.0111 12.5 24.2641 12.5 23.3563C12.5 22.4484 11.7583 21.7274 10.8649 21.5662C9.62533 21.3427 8.4388 20.8662 7.38182 20.1599C5.86683 19.1476 4.68604 17.7088 3.98877 16.0255C3.29149 14.3421 3.10906 12.4898 3.46452 10.7027C3.81999 8.91569 4.69739 7.27418 5.98578 5.98579C7.27418 4.69739 8.91569 3.81999 10.7027 3.46452C12.4898 3.10906 14.3421 3.29149 16.0255 3.98877C17.7088 4.68604 19.1476 5.86683 20.1599 7.38181C20.8662 8.4388 21.3427 9.62533 21.5662 10.8649C21.7274 11.7583 22.4484 12.5 23.3563 12.5Z" fill="#2E665A"/>
<path fill-rule="evenodd" clip-rule="evenodd" d="M18.887 15.3533H20.8698C22.8215 15.3533 24.4036 16.9355 24.4036 18.8871V21.0436C24.4036 22.9952 22.8215 24.5773 20.8698 24.5773H18.887C16.9353 24.5773 15.3532 22.9952 15.3532 21.0436V18.8871C15.3532 16.9355 16.9353 15.3533 18.887 15.3533ZM18.887 18.2292C18.5237 18.2292 18.2291 18.5238 18.2291 18.8871V21.0436C18.2291 21.4069 18.5237 21.7014 18.887 21.7014H20.8698C21.2332 21.7014 21.5277 21.4069 21.5277 21.0436V18.8871C21.5277 18.5238 21.2332 18.2292 20.8698 18.2292H18.887Z" fill="#2E665A"/>
</svg>
