<svg width="104" height="30" viewBox="0 0 104 30" fill="none" xmlns="http://www.w3.org/2000/svg">
<g clip-path="url(#clip0_810_28)">
<path d="M25.7643 22.623L30.0692 8.53413H34.0415L38.3465 22.623H35.607L31.7716 10.1974H32.2804L28.5038 22.623H25.7643ZM28.3472 19.6879V17.2027H35.7831V19.6879H28.3472ZM39.513 22.623V8.53413H42.1743V20.1379H48.2404V22.623H39.513ZM49.3169 22.623V8.53413H51.9781V22.623H49.3169ZM54.3243 22.623V8.53413H56.9855V20.1379H63.0516V22.623H54.3243ZM69.5968 22.9166C68.1879 22.9166 66.9714 22.61 65.9474 21.9969C64.9298 21.3837 64.1438 20.526 63.5894 19.4237C63.0415 18.3214 62.7676 17.0397 62.7676 15.5786C62.7676 14.1175 63.0415 12.8358 63.5894 11.7335C64.1438 10.6312 64.9298 9.77343 65.9474 9.1603C66.9714 8.54717 68.1879 8.24061 69.5968 8.24061C71.0057 8.24061 72.2189 8.54717 73.2364 9.1603C74.2605 9.77343 75.0464 10.6312 75.5943 11.7335C76.1488 12.8358 76.426 14.1175 76.426 15.5786C76.426 17.0397 76.1488 18.3214 75.5943 19.4237C75.0464 20.526 74.2605 21.3837 73.2364 21.9969C72.2189 22.61 71.0057 22.9166 69.5968 22.9166ZM69.5968 20.4119C70.4904 20.4249 71.234 20.2325 71.8275 19.8346C72.4211 19.4367 72.8646 18.8725 73.1581 18.142C73.4582 17.4115 73.6082 16.557 73.6082 15.5786C73.6082 14.6002 73.4582 13.7522 73.1581 13.0348C72.8646 12.3173 72.4211 11.7596 71.8275 11.3617C71.234 10.9638 70.4904 10.7583 69.5968 10.7453C68.7032 10.7323 67.9596 10.9247 67.366 11.3226C66.7725 11.7204 66.3257 12.2846 66.0256 13.0152C65.7321 13.7457 65.5853 14.6002 65.5853 15.5786C65.5853 16.557 65.7321 17.4049 66.0256 18.1224C66.3257 18.8399 66.7725 19.3976 67.366 19.7955C67.9596 20.1934 68.7032 20.3988 69.5968 20.4119ZM83.6429 22.9166C82.234 22.9166 81.0175 22.61 79.9935 21.9969C78.9759 21.3837 78.19 20.526 77.6355 19.4237C77.0876 18.3214 76.8137 17.0397 76.8137 15.5786C76.8137 14.1175 77.0876 12.8358 77.6355 11.7335C78.19 10.6312 78.9759 9.77343 79.9935 9.1603C81.0175 8.54717 82.234 8.24061 83.6429 8.24061C85.2605 8.24061 86.6172 8.64175 87.713 9.44404C88.8153 10.2463 89.5915 11.3323 90.0416 12.7021L87.3608 13.4457C87.0999 12.5912 86.6596 11.9292 86.04 11.4595C85.4203 10.9834 84.6213 10.7453 83.6429 10.7453C82.7493 10.7453 82.0024 10.9442 81.4024 11.3421C80.8088 11.74 80.362 12.301 80.062 13.025C79.7619 13.749 79.6119 14.6002 79.6119 15.5786C79.6119 16.557 79.7619 17.4082 80.062 18.1322C80.362 18.8562 80.8088 19.4172 81.4024 19.815C82.0024 20.2129 82.7493 20.4119 83.6429 20.4119C84.6213 20.4119 85.4203 20.1738 86.04 19.6976C86.6596 19.2215 87.0999 18.5594 87.3608 17.7115L90.0416 18.4551C89.5915 19.8248 88.8153 20.9109 87.713 21.7131C86.6172 22.5154 85.2605 22.9166 83.6429 22.9166ZM91.4132 22.623V8.53413H94.0744V15.0307L99.4361 8.53413H102.684L96.7944 15.4807L103.056 22.623H99.6904L94.0744 16.2048V22.623H91.4132Z" fill="#2E665A"/>
<path d="M19.0177 15.419C19.8208 15.419 20.4827 14.7645 20.3655 13.97C20.1517 12.5215 19.6192 11.132 18.799 9.90461C17.7084 8.27236 16.1582 7.00017 14.3446 6.24893C12.5309 5.49769 10.5352 5.30113 8.60985 5.68411C6.68448 6.06709 4.91591 7.01241 3.5278 8.40053C2.13968 9.78864 1.19436 11.5572 0.811384 13.4826C0.428403 15.408 0.624963 17.4037 1.37621 19.2173C2.12745 21.031 3.39963 22.5811 5.03189 23.6718C6.25926 24.4919 7.64878 25.0245 9.09727 25.2382C9.89176 25.3554 10.5462 24.6935 10.5462 23.8904C10.5462 23.0873 9.88837 22.4514 9.10245 22.2861C8.2301 22.1027 7.39621 21.7538 6.64764 21.2536C5.49366 20.4826 4.59423 19.3866 4.06311 18.1044C3.53199 16.8221 3.39302 15.4112 3.66379 14.05C3.93455 12.6887 4.60288 11.4384 5.58427 10.457C6.56565 9.47561 7.81601 8.80728 9.17723 8.53651C10.5385 8.26575 11.9494 8.40472 13.2316 8.93584C14.5139 9.46696 15.6098 10.3664 16.3809 11.5204C16.8811 12.2689 17.23 13.1028 17.4134 13.9752C17.5786 14.7611 18.2146 15.419 19.0177 15.419Z" fill="#2E665A"/>
<rect x="13.7169" y="18.5896" width="5.37635" height="5.51421" rx="1.90095" stroke="#2E665A" stroke-width="2.7571" stroke-linecap="round"/>
</g>
<defs>
<clipPath id="clip0_810_28">
<rect width="103.251" height="29.964" fill="white" transform="translate(0.495789)"/>
</clipPath>
</defs>
</svg>
